<?xml version="1.0" encoding="UTF-8"?><svg id="Layer_2" xmlns="http://www.w3.org/2000/svg" viewBox="0 0 232.447 177.158"><g id="Layer_1-2"><path d="M47.028,95.578l-.027-9.074c-.003-.873.931-1.902,2.011-1.898l45.189.177c9.068.036,16.907,4.648,22.252,11.995,5.263-7.008,12.602-11.898,21.461-11.933l47.298-.186c.304,4.419.308,8.016.022,12.459l-47.233.121c-8.327.021-14.122,6.827-14.831,14.865l-13.429.004c-.619-7.631-6.113-14.774-14.264-14.799l-46.45-.139c-.792-.002-1.999-.918-2.001-1.594Z" fill="#68bbe1"/><path d="M47.001,17.24c-.003-1.184.829-2.13,2.005-2.135l46.484-.199c7.791-.033,13.503-7.366,13.865-14.699,4.822-.277,9.024-.268,13.549-.025.556,7.733,6.623,14.79,14.555,14.815l47.769.149c.294,4.419.289,8.038-.009,12.452l-46.512-.104c-9.235-.021-17.188-4.693-22.582-12.112-5.339,7.318-12.95,12.028-21.928,12.072l-45.187.223c-1.1-.116-1.987-.99-1.989-1.941l-.02-8.497Z" fill="#68bbe1"/><path d="M48.119,136.305c11.548-1.701,21.61,6.348,23.28,17.332,1.7,11.177-6.148,21.588-17.3,23.294-10.903,1.668-21.509-6.056-23.243-16.859-1.811-11.278,5.381-22.017,17.263-23.767ZM54.217,170.008c5.814-1.231,9.469-5.367,10.386-10.919,1.164-7.051-2.679-14.328-10.027-15.761-2.025-.395-4.817-.34-6.926.007-7.601,1.25-11.391,8.942-9.833,16.755,1.482,7.437,9.054,11.474,16.401,9.918Z" fill="#68bbe1"/><path d="M129.087,176.819l-.071-11.611-12.615-18.344-.71.429-.012,29.362-6.608-.009.005-40.003,8.55-.066,11.047,15.92.389-15.738c2.198-.198,4.42-.2,7.082.025l.003,39.809-7.059.227Z" fill="#68bbe1"/><path d="M225.329,176.907l-6.209-16.727-8.35.065-.071,16.48-6.589.016-.017-40.121c6.205-.015,12.018-.222,17.995.162,4.883.314,8.252,4.965,9.054,8.739,1.144,5.386-.975,9.812-5.336,12.972l6.642,18.126-7.118.288ZM220.891,153.001c2.739-.188,3.912-3.076,3.807-5.093-.357-6.893-7.988-4.255-13.892-4.637l.101,9.762c3.492.146,6.402.214,9.984-.031Z" fill="#68bbe1"/><path d="M148.195,59.103c-1.282-6.197,1.622-12.25,6.75-15.383,2.263-1.383,4.432-1.712,6.845-1.837,4.364-.227,7.681,1.205,10.613,4.202,5.608,5.734,5.522,14.404,0,20.079-2.928,3.009-6.254,4.44-10.611,4.212-2.424-.126-4.579-.46-6.857-1.851-3.201-1.954-5.914-5.434-6.74-9.423Z" fill="#64b65f"/><path d="M95.911,136.663l6.711-.033-.267,29.872c-.055,6.178-6.429,10.575-11.976,10.619-5.6.045-12.063-4.321-12.103-10.452l-.196-30.024h6.569s.078,28.997.078,28.997c.009,3.182,3.443,4.904,5.998,4.721,2.989-.214,5.173-2.593,5.174-5.744l.012-27.956Z" fill="#68bbe1"/><polygon points="194.803 160.026 182.391 160.226 182.481 170.069 197.581 170.178 197.686 176.755 175.636 176.768 175.632 136.578 197.639 136.588 197.675 143.165 182.453 143.209 182.417 153.047 194.588 153.253 194.803 160.026" fill="#68bbe1"/><path d="M7.163,159.729c1.448,6.066,5.869,9.828,11.784,10.157l7.127.396.086,6.41c-2.965.062-5.269.204-8.028-.048C7.788,175.702.169,166.899.003,156.872c-.164-9.917,7.307-19.137,17.567-20.208,2.927-.306,5.364-.05,8.518.018l.017,6.384c-3.038.133-5.247.019-7.922.291-7.994.812-12.84,8.746-11.02,16.373Z" fill="#68bbe1"/><polygon points="159.109 176.622 152.399 176.725 152.344 143.231 142.107 143.149 142.159 136.59 169.145 136.578 169.196 143.158 159.117 143.227 159.109 176.622" fill="#68bbe1"/><polygon points="185.474 39.495 185.446 27.769 197.009 27.679 197.164 39.338 185.474 39.495" fill="#68bbe1"/><polygon points="185.474 84.606 185.446 72.88 197.009 72.79 197.164 84.449 185.474 84.606" fill="#68bbe1"/><polygon points="38.02 39.729 37.992 28.002 49.555 27.912 49.71 39.571 38.02 39.729" fill="#68bbe1"/><polygon points="38.02 84.839 37.992 73.113 49.555 73.023 49.71 84.682 38.02 84.839" fill="#68bbe1"/><path d="M58.535,59.103c-1.282-6.197,1.622-12.25,6.75-15.383,2.263-1.383,4.432-1.712,6.845-1.837,4.364-.227,7.681,1.205,10.613,4.202,5.608,5.734,5.522,14.404,0,20.079-2.928,3.009-6.254,4.44-10.611,4.212-2.424-.126-4.579-.46-6.857-1.851-3.201-1.954-5.914-5.434-6.74-9.423Z" fill="#e0305b"/><path d="M102.184,59.115c-1.282-6.197,1.622-12.25,6.75-15.383,2.263-1.383,4.432-1.712,6.845-1.837,4.364-.227,7.681,1.205,10.613,4.202,5.608,5.734,5.522,14.404,0,20.079-2.928,3.009-6.254,4.44-10.611,4.212-2.424-.126-4.579-.46-6.857-1.851-3.201-1.954-5.914-5.434-6.74-9.423Z" fill="#e4a83a"/><rect x="64.872" y="46.25" width="21.573" height="22.576" fill="none"/><path d="M79.097,57.924h-4.35v4.45h-4.05v-4.45h-4.35v-3.825h4.35v-4.475h4.05v4.475h4.35v3.825Z" fill="#fff"/><rect x="109.508" y="46.25" width="21.573" height="22.576" fill="none"/><path d="M121.808,54.199v3.55h-11v-3.55h11Z" fill="#fff"/><path d="M157.946,58.338c.868,1.814,2.662,2.942,4.649,2.937,2.341-.006,4.352-1.605,4.937-3.799.613-2.298-.42-4.68-2.458-5.813-2.083-1.158-4.688-.752-6.308,1.051l2.099.01v1.708s-4.249,0-4.249,0c-.528,0-.885-.383-.885-.903l.002-4.232h1.707s.003,2.327.003,2.327c2.736-3.073,7.466-3.107,10.222-.05,2.238,2.482,2.362,6.255.218,8.884-1.507,1.847-3.847,2.797-6.257,2.463-2.212-.307-4.223-1.729-5.221-3.837l1.542-.746Z" fill="#fff"/></g></svg>